<svg width="125" height="54" viewBox="0 -4 127 58" fill="none" xmlns="http://www.w3.org/2000/svg">
<path d="M45.3896 1.83643C49.2281 18.8922 50.46 36.4196 49.0445 53.8357" stroke="#6dd230" stroke-width="6" stroke-miterlimit="10"/>
<path d="M33.7507 14.2694L36.7491 14.1717L36.5536 8.17486L33.5552 8.27259L33.7507 14.2694ZM10.5663 9.02189C8.91036 9.07587 7.61168 10.4621 7.66565 12.118C7.71963 13.774 9.10582 15.0727 10.7618 15.0187L10.5663 9.02189ZM33.5552 8.27259L10.5663 9.02189L10.7618 15.0187L33.7507 14.2694L33.5552 8.27259Z" fill="#6dd230"/>
<path d="M33.72 28.9988L36.7192 28.932L36.5856 22.9334L33.5864 23.0003L33.72 28.9988ZM-0.053135 23.7496C-1.70958 23.7865 -3.02248 25.1592 -2.98558 26.8156C-2.94869 28.4721 -1.57596 29.785 0.0804787 29.7481L-0.053135 23.7496ZM33.5864 23.0003L-0.053135 23.7496L0.0804787 29.7481L33.72 28.9988L33.5864 23.0003Z" fill="#6dd230"/>
<path d="M36.382 46.668L39.3805 46.7607L39.5659 40.7635L36.5673 40.6709L36.382 46.668ZM16.9257 40.0639C15.2696 40.0128 13.8856 41.3138 13.8344 42.9698C13.7833 44.6259 15.0843 46.0099 16.7403 46.0611L16.9257 40.0639ZM36.5673 40.6709L16.9257 40.0639L16.7403 46.0611L36.382 46.668L36.5673 40.6709Z" fill="#6dd230"/>
<path d="M45.2705 1.68249C70.7532 0.145252 96.2713 -0.310019 121.825 0.316684C124.629 15.9073 120.467 32.2772 124.427 47.6212C102.434 50.7465 80.1266 51.0702 58.0507 48.5844" stroke="#6dd230" stroke-width="6" stroke-miterlimit="10"/>
<path d="M120.981 0.126465C117.034 7.22796 110.537 12.6483 103.541 16.8751C96.5451 21.1019 88.963 24.2831 81.6809 28.0093C73.1376 23.5781 64.5598 19.1265 56.7522 13.5257C53.2532 11.0154 49.817 8.15507 47.9316 4.31039" stroke="#6dd230" stroke-width="6" stroke-miterlimit="10"/>
</svg>
