<svg width="63" height="46" viewBox="0 0 63 46" fill="none" xmlns="http://www.w3.org/2000/svg">
<path d="M62.7895 29.2296C62.6095 26.6096 61.7895 24.3496 59.2195 23.0696C58.9173 22.9313 58.648 22.7301 58.4295 22.4796C58.0763 22.0952 57.8192 21.6326 57.6795 21.1296C57.5664 20.1336 57.0674 19.2217 56.2895 18.5896C56.2731 18.4306 56.243 18.2734 56.1995 18.1196C54.8945 13.8626 52.5047 10.0183 49.2647 6.96415C46.0247 3.91003 42.0461 1.75116 37.7195 0.699584C33.4016 -0.264699 28.903 -0.0412346 24.7019 1.34624C20.5007 2.73371 16.7539 5.23335 13.8595 8.57958C11.4969 11.2626 9.7282 14.4149 8.66953 17.8296H8.57953C8.58447 17.8795 8.58447 17.9297 8.57953 17.9796C8.58447 18.0495 8.58447 18.1197 8.57953 18.1896C8.50953 18.4296 8.44953 18.6696 8.38953 18.9096C8.21295 19.1848 7.94314 19.3871 7.62953 19.4796C7.07257 19.6632 6.58703 20.0165 6.24092 20.4899C5.89482 20.9633 5.70551 21.5332 5.69953 22.1196C5.6715 22.3238 5.5987 22.5194 5.48634 22.6923C5.37398 22.8651 5.22482 23.011 5.04953 23.1196C4.03287 23.6237 3.13411 24.3368 2.41207 25.2122C1.69003 26.0876 1.16097 27.1056 0.859526 28.1996C-0.059451 30.5651 -0.223632 33.157 0.389526 35.6196C0.606963 36.5736 1.02538 37.4702 1.61686 38.2496C2.20834 39.0291 2.95927 39.6734 3.81953 40.1396C4.1262 40.2485 4.38365 40.4638 4.54512 40.7464C4.70659 41.029 4.76137 41.3601 4.69953 41.6796C4.68924 42.1065 4.76346 42.5313 4.91791 42.9294C5.07237 43.3276 5.30401 43.6913 5.59953 43.9996C7.05953 45.4796 8.93953 45.5496 10.8795 45.0896C12.8195 44.6296 13.2895 44.0896 13.3995 42.0896L14.0895 29.0896C14.2095 26.8396 14.3395 24.5996 14.3995 22.3496C14.4641 21.7912 14.3535 21.2266 14.0829 20.7339C13.8124 20.2412 13.3953 19.8448 12.8895 19.5996C13.8008 16.5903 15.365 13.8192 17.4703 11.484C19.5757 9.14869 22.1705 7.30677 25.0695 6.08958C28.3803 4.79444 31.9791 4.41646 35.4867 4.99548C38.9943 5.5745 42.2807 7.08909 44.9995 9.37958C47.8276 11.6693 49.998 14.6678 51.2895 18.0696C50.7885 18.243 50.341 18.5433 49.9905 18.9411C49.64 19.3389 49.3985 19.8207 49.2895 20.3396C48.9989 22.2131 48.8352 24.104 48.7995 25.9996C48.7195 29.7996 48.7995 33.6096 48.7995 37.9396C48.831 39.1554 48.9413 40.368 49.1295 41.5696C49.2646 42.3519 49.6985 43.0512 50.3395 43.5196C51.1107 43.9036 51.953 44.1241 52.8134 44.1671C53.6738 44.2101 54.5339 44.0748 55.3395 43.7696C56.9095 43.2196 57.4495 42.6796 57.5195 41.0096C57.5302 40.7514 57.6065 40.5003 57.7412 40.2798C57.876 40.0593 58.0647 39.8769 58.2895 39.7496C59.178 39.1266 59.9815 38.3904 60.6795 37.5596C62.4103 35.1493 63.1642 32.1731 62.7895 29.2296Z" fill="#31CCEC"/>
</svg>
